HIERARCHY
ROOT hip
{
  OFFSET 0 0 0
  CHANNELS 6 Xposition Yposition Zposition Zrotation Yrotation Xrotation
  JOINT abdomen
  {
    OFFSET 0 20.6881 -0.73152
    CHANNELS 3 Zrotation Xrotation Yrotation
    JOINT chest
    {
      OFFSET 0 11.7043 -0.48768
      CHANNELS 3 Zrotation Xrotation Yrotation
      JOINT neck
      {
        OFFSET 0 22.1894 -2.19456
        CHANNELS 3 Zrotation Xrotation Yrotation
        JOINT head
        {
          OFFSET -0.24384 7.07133 1.2192
          CHANNELS 3 Zrotation Xrotation Yrotation
          JOINT leftEye
          {
            OFFSET 4.14528 8.04674 8.04672
            CHANNELS 3 Zrotation Xrotation Yrotation
            End Site
            {
              OFFSET 1 0 0
            }
          }
          JOINT rightEye
          {
            OFFSET -3.6576 8.04674 8.04672
            CHANNELS 3 Zrotation Xrotation Yrotation
            End Site
            {
              OFFSET 1 0 0
            }
          }
        }
      }
      JOINT rCollar
      {
        OFFSET -2.68224 19.2634 -4.8768
        CHANNELS 3 Zrotation Xrotation Yrotation
        JOINT rShldr
        {
          OFFSET -8.77824 -1.95073 1.46304
          CHANNELS 3 Zrotation Xrotation Yrotation
          JOINT rForeArm
          {
            OFFSET -28.1742 -1.7115 0.48768
            CHANNELS 3 Zrotation Xrotation Yrotation
            JOINT rHand
            {
              OFFSET -22.5879 0.773209 7.07136
              CHANNELS 3 Zrotation Xrotation Yrotation
              JOINT rThumb1
              {
                OFFSET -1.2192 -0.487915 3.41376
                CHANNELS 3 Zrotation Xrotation Yrotation
                JOINT rThumb2
                {
                  OFFSET -3.37035 -0.52449 3.41376
                  CHANNELS 3 Zrotation Xrotation Yrotation
                  End Site
                  {
                    OFFSET -1.78271 -1.18214 1.43049
                  }
                }
              }
              JOINT rIndex1
              {
                OFFSET -7.75947 0.938293 5.60832
                CHANNELS 3 Zrotation Xrotation Yrotation
                JOINT rIndex2
                {
                  OFFSET -2.54057 -0.884171 1.56538
                  CHANNELS 3 Zrotation Xrotation Yrotation
                  End Site
                  {
                    OFFSET -1.62519 -0.234802 1.16502
                  }
                }
              }
              JOINT rMid1
              {
                OFFSET -8.24714 1.18213 3.41376
                CHANNELS 3 Zrotation Xrotation Yrotation
                JOINT rMid2
                {
                  OFFSET -3.10165 -0.590103 1.0647
                  CHANNELS 3 Zrotation Xrotation Yrotation
                  End Site
                  {
                    OFFSET -2.48547 -0.328903 0.83742
                  }
                }
              }
              JOINT rRing1
              {
                OFFSET -8.82822 0.546677 1.51678
                CHANNELS 3 Zrotation Xrotation Yrotation
                JOINT rRing2
                {
                  OFFSET -2.60934 -0.819778 -0.0198488
                  CHANNELS 3 Zrotation Xrotation Yrotation
                  End Site
                  {
                    OFFSET -2.33842 -0.294052 0.168128
                  }
                }
              }
              JOINT rPinky1
              {
                OFFSET -8.27202 -0.0477905 -0.4584
                CHANNELS 3 Zrotation Xrotation Yrotation
                JOINT rPinky2
                {
                  OFFSET -1.82734 -0.647385 -0.700984
                  CHANNELS 3 Zrotation Xrotation Yrotation
                  End Site
                  {
                    OFFSET -1.69225 -0.51767 -0.607171
                  }
                }
              }
            }
          }
        }
      }
      JOINT lCollar
      {
        OFFSET 2.68224 19.2634 -4.8768
        CHANNELS 3 Zrotation Xrotation Yrotation
        JOINT lShldr
        {
          OFFSET 8.77824 -1.95073 1.46304
          CHANNELS 3 Zrotation Xrotation Yrotation
          JOINT lForeArm
          {
            OFFSET 28.1742 -1.7115 0.48768
            CHANNELS 3 Zrotation Xrotation Yrotation
            JOINT lHand
            {
              OFFSET 22.5879 0.773209 7.07136
              CHANNELS 3 Zrotation Xrotation Yrotation
              JOINT lThumb1
              {
                OFFSET 1.2192 -0.487915 3.41376
                CHANNELS 3 Zrotation Xrotation Yrotation
                JOINT lThumb2
                {
                  OFFSET 3.37035 -0.52449 3.41376
                  CHANNELS 3 Zrotation Xrotation Yrotation
                  End Site
                  {
                    OFFSET 1.78271 -1.18214 1.43049
                  }
                }
              }
              JOINT lIndex1
              {
                OFFSET 7.75947 0.938293 5.60832
                CHANNELS 3 Zrotation Xrotation Yrotation
                JOINT lIndex2
                {
                  OFFSET 2.54057 -0.884171 1.56538
                  CHANNELS 3 Zrotation Xrotation Yrotation
                  End Site
                  {
                    OFFSET 1.62519 -0.234802 1.16502
                  }
                }
              }
              JOINT lMid1
              {
                OFFSET 8.24714 1.18213 3.41376
                CHANNELS 3 Zrotation Xrotation Yrotation
                JOINT lMid2
                {
                  OFFSET 3.10165 -0.590103 1.0647
                  CHANNELS 3 Zrotation Xrotation Yrotation
                  End Site
                  {
                    OFFSET 2.48547 -0.328903 0.83742
                  }
                }
              }
              JOINT lRing1
              {
                OFFSET 8.82822 0.546677 1.51678
                CHANNELS 3 Zrotation Xrotation Yrotation
                JOINT lRing2
                {
                  OFFSET 2.60934 -0.819778 -0.0198488
                  CHANNELS 3 Zrotation Xrotation Yrotation
                  End Site
                  {
                    OFFSET 2.33842 -0.294052 0.168128
                  }
                }
              }
              JOINT lPinky1
              {
                OFFSET 8.27202 -0.0477905 -0.4584
                CHANNELS 3 Zrotation Xrotation Yrotation
                JOINT lPinky2
                {
                  OFFSET 1.82734 -0.647385 -0.700984
                  CHANNELS 3 Zrotation Xrotation Yrotation
                  End Site
                  {
                    OFFSET 1.69225 -0.51767 -0.607171
                  }
                }
              }
            }
          }
        }
      }
    }
  }
  JOINT rButtock
  {
    OFFSET -8.77824 4.35084 1.2192
    CHANNELS 3 Zrotation Xrotation Yrotation
    JOINT rThigh
    {
      OFFSET 0 -1.70687 -2.19456
      CHANNELS 3 Zrotation Xrotation Yrotation
      JOINT rShin
      {
        OFFSET 0 -36.8199 0.73152
        CHANNELS 3 Zrotation Xrotation Yrotation
        JOINT rFoot
        {
          OFFSET 0.73152 -45.1104 -5.12064
          CHANNELS 3 Zrotation Xrotation Yrotation
          End Site
          {
            OFFSET -1.1221 -3.69964 12.103
          }
        }
      }
    }
  }
  JOINT lButtock
  {
    OFFSET 8.77824 4.35084 1.2192
    CHANNELS 3 Zrotation Xrotation Yrotation
    JOINT lThigh
    {
      OFFSET 0 -1.70687 -2.19456
      CHANNELS 3 Zrotation Xrotation Yrotation
      JOINT lShin
      {
        OFFSET 0 -36.8199 0.73152
        CHANNELS 3 Zrotation Xrotation Yrotation
        JOINT lFoot
        {
          OFFSET -0.73152 -45.1104 -5.12064
          CHANNELS 3 Zrotation Xrotation Yrotation
          End Site
          {
            OFFSET 1.1221 -3.69964 12.103
          }
        }
      }
    }
  }
}
MOTION
Frames:	4
Frame Time:	0.03333
0.3775000001951412 56.265002489089966 0.8810000086668879 9.468500001091916 17.847799980525654 6.898500026336164 -18.812299530959617 8.823189704724635 -3.6903699915781067 6.700319953134128 -7.799579989666089 -0.950229044101985 -8.264450348539974 19.19500015279731 -12.261400211203274 12.473499783046972 -25.582499149492147 -21.60940030741053 -0.0 0.0 0.0 -0.0 0.0 0.0 8.604279802562122e-14 -1.4762299761565812e-13 -5.470639952718235e-13 58.78499980876605 32.68370168803454 0.36157700784938457 -18.316900787816714 -11.031400108673513 34.73499874108613 -0.14601699803593585 10.828499947868176 1.540410002192037 1.6286200207324728e-09 -7.058340124002417e-10 -2.9571100304148217e-10 2.8123500161618565e-09 -1.1803799768187985e-09 -5.297949822209245e-10 1.6286200207324728e-09 -7.05827999164047e-10 -2.9571100304148217e-10 7.730910121524428 5.474879855648998 0.41731399283890674 1.6286200207324728e-09 -7.058190041578386e-10 -2.957129908881581e-10 2.90554006136521 0.9651829962377875 0.10290200252939893 1.6286200207324728e-09 -7.058240234706952e-10 -2.957089903467228e-10 10.278599710243157 0.7318009818271524 0.025912300303053633 1.6286099821067595e-09 -7.058240234706952e-10 -2.9569900141717635e-10 2.221669932038622 -0.7334870246959406 -0.20891999872313852 8.601179858557629e-14 -1.4762900337801516e-13 -5.471399954645598e-13 -68.4101980097964 35.112998485227564 -11.390399974091261 14.897499768538646 -7.701960364727328 -27.37800049548488 0.3497569919647073 16.5864006446077 -2.399140017903533 2.2756200829388354e-09 2.6542899658505163e-09 6.932350028961691e-11 3.933669875531224e-09 4.563329851791249e-09 8.772759980530055e-11 2.275609944920788e-09 2.6542899658505163e-09 6.933179954948886e-11 -7.730910121524428 5.474879855648998 -0.41731399283890674 2.2756200829388354e-09 2.6542899658505163e-09 6.93225001542581e-11 -2.90554006136521 0.9651829962377875 -0.10290200252939893 2.2756200829388354e-09 2.6542899658505163e-09 6.931940035584784e-11 -10.278599710243157 0.7318009818271524 -0.025912300303053633 2.2756200829388354e-09 2.6542899658505163e-09 6.930859765156843e-11 -2.221669932038622 -0.7334870246959406 0.20891999872313852 -2.0321699793705798e-16 0.0 -3.882510030490358e-19 -63.18069782272199 -57.96890148597625 -53.635300136859485 -2.486609981735655 72.73650130178501 3.058399908433507 1.5643399968359997 -3.8546100010207027 11.189099785098998 2.0321699793705798e-16 0.0 3.882510030490358e-19 6.717479949650139 13.826600384987872 3.1904599084884113 -0.18289600414982468 29.606400938620315 -2.4127799056760484 13.492499974189405 -21.860100693348556 34.23449955418052
0.36499999960142304 56.247299909591675 0.8990000089397654 9.447599622231678 17.75859941751258 6.851099794156745 -18.807899181586837 8.836550408514826 -3.7763599387944518 6.717050074619252 -7.8468397760807 -0.9712479907773472 -8.420590180513758 19.360799579804784 -12.477299929546437 12.771200408211147 -25.54830039231789 -21.991800400924742 -0.0 0.0 0.0 -0.0 0.0 0.0 -5.936110073124295e-14 -7.311149990619599e-14 -1.047189960908611e-12 59.111100360499144 32.88890106126924 0.12611299970129888 -18.33439973247029 -11.05069966194703 34.774600177893866 -0.14453799527636363 10.774399726999796 1.5325299916022521 4.1443498176313676e-09 -3.3591801983452004e-09 -1.0986199921269278e-10 7.160330275226571e-09 -5.709389854535048e-09 -2.3802699730153633e-10 4.144360154434082e-09 -3.3591801983452004e-09 -1.0986100528935482e-10 7.730910121524428 5.474879855648998 0.41731399283890674 4.1443498176313676e-09 -3.3591801983452004e-09 -1.0985900501863718e-10 2.90554006136521 0.9651829962377875 0.10290200252939893 4.144360154434082e-09 -3.3591801983452004e-09 -1.0985900501863718e-10 10.278599710243157 0.7318009818271524 0.025912300303053633 4.1443498176313676e-09 -3.3591801983452004e-09 -1.0985100393576662e-10 2.221669932038622 -0.7334870246959406 -0.20891999872313852 -5.959760037315131e-14 -7.311500023435762e-14 -1.0474000048640154e-12 -68.49909975203329 35.16589830034931 -11.295000160632753 14.85419978429535 -7.664789621490473 -27.289199498538252 0.3477409922620693 16.540100499771476 -2.3920600999419914 5.020249927607638e-09 7.619060086656713e-09 1.9851799795989583e-09 8.699679779260065e-09 1.3139999690899037e-08 3.3602099029233244e-09 5.02023004914088e-09 7.619049749853998e-09 1.9851799795989583e-09 -7.730910121524428 5.474879855648998 -0.41731399283890674 5.020239988374259e-09 7.619049749853998e-09 1.985170040365579e-09 -2.90554006136521 0.9651829962377875 -0.10290200252939893 5.020239988374259e-09 7.619049749853998e-09 1.9851799795989583e-09 -10.278599710243157 0.7318009818271524 -0.025912300303053633 5.020239988374259e-09 7.619049749853998e-09 1.985170040365579e-09 -2.221669932038622 -0.7334870246959406 0.20891999872313852 -2.0321699793705798e-16 0.0 -3.882510030490358e-19 -63.163697481877826 -58.009001526593394 -53.60550002151072 -2.4984499012184607 72.79500187202616 3.0707999034282536 1.5594999540353995 -3.775150141537713 11.265800248157303 2.0321699793705798e-16 0.0 3.882510030490358e-19 6.686189999288665 13.961899602256654 3.2225600900401785 -0.18694199743877132 29.558801350294498 -2.4085300339084195 13.508299909286936 -21.850400117179845 34.27760146293789
0.410200000351324 56.22720122337341 0.8920000087528024 9.393299618330076 17.679799525058144 6.826299804167252 -18.837699296935604 8.87312009510472 -3.973120186422771 6.783789987433562 -7.849260224367823 -1.0236299921826444 -8.62063959111426 19.43429924546329 -12.746800411174922 13.168499705626095 -25.566200610585202 -22.44960066023402 -0.0 0.0 0.0 -0.0 0.0 0.0 -9.711619839382893e-14 1.544950062627308e-14 -1.1529799967526646e-12 59.28520188244277 33.17649983665096 0.138089002699189 -18.331000005810914 -11.047000260737821 34.766899139604675 -0.14201700180218102 10.681700399584384 1.5190300159860162 4.616759989885155e-09 -4.082660176599037e-09 -5.309070084995146e-11 7.97643993288468e-09 -6.948540319542597e-09 -1.456709946883698e-10 4.616769929118534e-09 -4.0826701158324156e-09 -5.309360186369412e-11 7.730910121524428 5.474879855648998 0.41731399283890674 4.616759989885155e-09 -4.0826701158324156e-09 -5.308870057923382e-11 2.90554006136521 0.9651829962377875 0.10290200252939893 4.616769929118534e-09 -4.0826701158324156e-09 -5.3088601186900026e-11 10.278599710243157 0.7318009818271524 0.025912300303053633 4.616759989885155e-09 -4.082660176599037e-09 -5.3082202805411924e-11 2.221669932038622 -0.7334870246959406 -0.20891999872313852 -9.737769777985183e-14 1.5447199933976204e-14 -1.1532500255345198e-12 -68.60599904273316 35.059600066296404 -11.219300320287855 14.838500594488076 -7.651280361085834 -27.256899533953263 0.34988700568277553 16.58960058823385 -2.3996399023734134 5.553409886985384e-09 9.244360105263407e-09 2.996989961946188e-09 9.634409814040696e-09 1.5958700280836438e-08 5.101820023245792e-09 5.553399947752005e-09 9.244349768460692e-09 2.996989961946188e-09 -7.730910121524428 5.474879855648998 -0.41731399283890674 5.553409886985384e-09 9.244349768460692e-09 2.996989961946188e-09 -2.90554006136521 0.9651829962377875 -0.10290200252939893 5.553399947752005e-09 9.244349768460692e-09 2.996989961946188e-09 -10.278599710243157 0.7318009818271524 -0.025912300303053633 5.553409886985384e-09 9.244360105263407e-09 2.996980022712808e-09 -2.221669932038622 -0.7334870246959406 0.20891999872313852 -2.0321699793705798e-16 0.0 -3.882510030490358e-19 -63.24499722356849 -58.080001343015674 -53.65519989300632 -2.511780082600798 72.86189674475727 3.0840500435312554 1.5622000131916702 -3.772210171986846 11.289799825353436 2.0321699793705798e-16 0.0 3.882510030490358e-19 6.6288198253551425 14.000700199384204 3.2579699251316403 -0.1867670005217162 29.53839957524367 -2.408540065748763 13.511800381236569 -21.80149937781714 34.34249850533676
0.39539999970656936 56.2004029750824 0.9110000093642157 9.684399719435081 17.640100758054736 6.941000024672922 -18.901100527906245 8.93268019844088 -4.2807198901284105 6.900680137341868 -7.806830235470058 -1.1073499687170179 -8.86569994834515 19.41559989506309 -13.069500382474992 13.66390015631629 -25.634900360804483 -22.983400434438025 -0.0 0.0 0.0 -0.0 0.0 0.0 -2.7222501028563367e-14 1.1806000246514245e-13 -8.644290070056205e-13 59.30300135541982 33.546398976436755 0.3999839886455861 -18.3066999002913 -11.020300197498596 34.711899041313146 -0.1385090059722919 10.550400258074644 1.4999200004619666 3.0458500405321658e-09 -2.8762900984159907e-09 -1.2539800248426237e-10 5.260679983059521e-09 -4.8978299803487726e-09 -2.5272799315284627e-10 3.0458500405321658e-09 -2.876279960397944e-09 -1.2540899776118852e-10 7.730910121524428 5.474879855648998 0.41731399283890674 3.0458500405321658e-09 -2.8762900984159907e-09 -1.2540099667831797e-10 2.90554006136521 0.9651829962377875 0.10290200252939893 3.045859979765545e-09 -2.8762900984159907e-09 -1.253969961368827e-10 10.278599710243157 0.7318009818271524 0.025912300303053633 3.0458399025141186e-09 -2.876279960397944e-09 -1.2539200167210946e-10 2.221669932038622 -0.7334870246959406 -0.20891999872313852 -2.7328499700951847e-14 1.1805800054435677e-13 -8.646920472640057e-13 -68.73019920260067 34.79410036797425 -11.163700019123013 14.850499529312497 -7.66148978634771 -27.28130038476313 0.3562740062891044 16.734899202447533 -2.421909947605651 3.875119839538832e-09 7.53018982288593e-09 3.104770014790945e-09 6.737869919106498e-09 1.3019400213625973e-08 5.312559998315549e-09 3.875109900305453e-09 7.53018982288593e-09 3.104770014790945e-09 -7.730910121524428 5.474879855648998 -0.41731399283890674 3.875119839538832e-09 7.53018982288593e-09 3.104760075557565e-09 -2.90554006136521 0.9651829962377875 -0.10290200252939893 3.875109900305453e-09 7.530200159688644e-09 3.104760075557565e-09 -10.278599710243157 0.7318009818271524 -0.025912300303053633 3.875119839538832e-09 7.530200159688644e-09 3.104749937539518e-09 -2.221669932038622 -0.7334870246959406 0.20891999872313852 -2.0321699793705798e-16 0.0 -3.882510030490358e-19 -63.425403010116035 -58.181702859757166 -53.78519888347917 -2.5266400129138074 72.93719958035666 3.0981699655363757 1.5725399590997173 -3.8457798470843456 11.261000332718076 2.0321699793705798e-16 0.0 3.882510030490358e-19 6.545559819372687 13.942899723532971 3.296610012813695 -0.18237700315439628 29.54519902856242 -2.412810001197079 13.502799899457784 -21.713299437517474 34.429200926660904
